HIERARCHY
ROOT hip
{
  OFFSET 2.38671 860.565 -6.58267
  CHANNELS 6 Xposition Yposition Zposition Zrotation Xrotation Yrotation
  JOINT abdomen
  {
    OFFSET 0 -1.186 -1.50178
    CHANNELS 6 Xposition Yposition Zposition Zrotation Xrotation Yrotation
    JOINT abdomen2
    {
      OFFSET 0 9.964 0.21338
      CHANNELS 6 Xposition Yposition Zposition Zrotation Xrotation Yrotation
      JOINT chest
      {
        OFFSET 0 13.134 -3.25729
        CHANNELS 6 Xposition Yposition Zposition Zrotation Xrotation Yrotation
        JOINT neck
        {
          OFFSET 0 20.686 -1.69049
          CHANNELS 6 Xposition Yposition Zposition Zrotation Xrotation Yrotation
          JOINT head
          {
            OFFSET 0 7.23799 -0.12368
            CHANNELS 6 Xposition Yposition Zposition Zrotation Xrotation Yrotation
            End Site
            {
              OFFSET 0 10.017 2.38717
            }
          }
        }
        JOINT lCollar
        {
          OFFSET 1.70688 20.075 5.0056
          CHANNELS 6 Xposition Yposition Zposition Zrotation Xrotation Yrotation
          JOINT lShldr
          {
            OFFSET 13.6458 -0.047012 -4.84902
            CHANNELS 6 Xposition Yposition Zposition Zrotation Xrotation Yrotation
            JOINT lForeArm
            {
              OFFSET 28.3255 -0.975903 2.28883
              CHANNELS 6 Xposition Yposition Zposition Zrotation Xrotation Yrotation
              JOINT lHand
              {
                OFFSET 22.1583 -0.530035 10.8316
                CHANNELS 6 Xposition Yposition Zposition Zrotation Xrotation Yrotation
                JOINT lThumb1
                {
                  OFFSET 0.785995 0.111999 2.58168
                  CHANNELS 6 Xposition Yposition Zposition Zrotation Xrotation Yrotation
                  JOINT lThumb2
                  {
                    OFFSET 0.3601 -0.878005 4.2331
                    CHANNELS 6 Xposition Yposition Zposition Zrotation Xrotation Yrotation
                    End Site
                    {
                      OFFSET 1.81271 -1.21601 2.2227
                    }
                  }
                }
                JOINT lCarpal1
                {
                  OFFSET 0.9571 1.114 1.76948
                  CHANNELS 6 Xposition Yposition Zposition Zrotation Xrotation Yrotation
                  JOINT lIndex1
                  {
                    OFFSET 4.1246 0.487 4.1451
                    CHANNELS 6 Xposition Yposition Zposition Zrotation Xrotation Yrotation
                    JOINT lIndex2
                    {
                      OFFSET 3.40521 -1.45401 2.7682
                      CHANNELS 6 Xposition Yposition Zposition Zrotation Xrotation Yrotation
                      End Site
                      {
                        OFFSET 1.4531 -1.795 1.2713
                      }
                    }
                  }
                  JOINT lMid1
                  {
                    OFFSET 5.6954 0.209991 2.1184
                    CHANNELS 6 Xposition Yposition Zposition Zrotation Xrotation Yrotation
                    JOINT lMid2
                    {
                      OFFSET 3.9766 -1.53999 2.3863
                      CHANNELS 6 Xposition Yposition Zposition Zrotation Xrotation Yrotation
                      End Site
                      {
                        OFFSET 1.4042 -1.926 1.125
                      }
                    }
                  }
                }
                JOINT lCarpal2
                {
                  OFFSET 2.09559 0.65999 -0.38939
                  CHANNELS 6 Xposition Yposition Zposition Zrotation Xrotation Yrotation
                  JOINT lRing1
                  {
                    OFFSET 5.0395 -0.089997 2.49707
                    CHANNELS 6 Xposition Yposition Zposition Zrotation Xrotation Yrotation
                    JOINT lRing2
                    {
                      OFFSET 3.7921 -1.552 1.4806
                      CHANNELS 6 Xposition Yposition Zposition Zrotation Xrotation Yrotation
                      End Site
                      {
                        OFFSET 1.4655 -1.808 0.9609
                      }
                    }
                  }
                  JOINT lPinky1
                  {
                    OFFSET 4.9141 -1.269 0.35915
                    CHANNELS 6 Xposition Yposition Zposition Zrotation Xrotation Yrotation
                    JOINT lPinky2
                    {
                      OFFSET 3.1477 -1.685 0.84623
                      CHANNELS 6 Xposition Yposition Zposition Zrotation Xrotation Yrotation
                      End Site
                      {
                        OFFSET 0.805505 -1.58499 0.79549
                      }
                    }
                  }
                }
              }
            }
          }
        }
        JOINT rCollar
        {
          OFFSET -1.70688 20.075 5.0056
          CHANNELS 6 Xposition Yposition Zposition Zrotation Xrotation Yrotation
          JOINT rShldr
          {
            OFFSET -13.6458 -0.047012 -4.84902
            CHANNELS 6 Xposition Yposition Zposition Zrotation Xrotation Yrotation
            JOINT rForeArm
            {
              OFFSET -28.3255 -0.975903 2.28883
              CHANNELS 6 Xposition Yposition Zposition Zrotation Xrotation Yrotation
              JOINT rHand
              {
                OFFSET -22.1583 -0.530036 10.8316
                CHANNELS 6 Xposition Yposition Zposition Zrotation Xrotation Yrotation
                JOINT rThumb1
                {
                  OFFSET -0.785995 0.111999 2.58168
                  CHANNELS 6 Xposition Yposition Zposition Zrotation Xrotation Yrotation
                  JOINT rThumb2
                  {
                    OFFSET -0.3601 -0.878005 4.2331
                    CHANNELS 6 Xposition Yposition Zposition Zrotation Xrotation Yrotation
                    End Site
                    {
                      OFFSET -1.81271 -1.21601 2.2227
                    }
                  }
                }
                JOINT rCarpal1
                {
                  OFFSET -0.9571 1.114 1.76948
                  CHANNELS 6 Xposition Yposition Zposition Zrotation Xrotation Yrotation
                  JOINT rIndex1
                  {
                    OFFSET -4.1246 0.487 4.1451
                    CHANNELS 6 Xposition Yposition Zposition Zrotation Xrotation Yrotation
                    JOINT rIndex2
                    {
                      OFFSET -3.40521 -1.45401 2.7682
                      CHANNELS 6 Xposition Yposition Zposition Zrotation Xrotation Yrotation
                      End Site
                      {
                        OFFSET -1.4531 -1.795 1.2713
                      }
                    }
                  }
                  JOINT rMid1
                  {
                    OFFSET -5.6954 0.209991 2.1184
                    CHANNELS 6 Xposition Yposition Zposition Zrotation Xrotation Yrotation
                    JOINT rMid2
                    {
                      OFFSET -3.9766 -1.53999 2.3863
                      CHANNELS 6 Xposition Yposition Zposition Zrotation Xrotation Yrotation
                      End Site
                      {
                        OFFSET -1.4042 -1.926 1.125
                      }
                    }
                  }
                }
                JOINT rCarpal2
                {
                  OFFSET -2.09559 0.65999 -0.38939
                  CHANNELS 6 Xposition Yposition Zposition Zrotation Xrotation Yrotation
                  JOINT rRing1
                  {
                    OFFSET -5.0395 -0.089997 2.49707
                    CHANNELS 6 Xposition Yposition Zposition Zrotation Xrotation Yrotation
                    JOINT rRing2
                    {
                      OFFSET -3.7921 -1.552 1.4806
                      CHANNELS 6 Xposition Yposition Zposition Zrotation Xrotation Yrotation
                      End Site
                      {
                        OFFSET -1.4655 -1.808 0.9609
                      }
                    }
                  }
                  JOINT rPinky1
                  {
                    OFFSET -4.9141 -1.269 0.35915
                    CHANNELS 6 Xposition Yposition Zposition Zrotation Xrotation Yrotation
                    JOINT rPinky2
                    {
                      OFFSET -3.1477 -1.685 0.84623
                      CHANNELS 6 Xposition Yposition Zposition Zrotation Xrotation Yrotation
                      End Site
                      {
                        OFFSET -0.805505 -1.58499 0.79549
                      }
                    }
                  }
                }
              }
            }
          }
        }
      }
    }
  }
  JOINT lThigh
  {
    OFFSET 8.367 -8.2066 0.59823
    CHANNELS 6 Xposition Yposition Zposition Zrotation Xrotation Yrotation
    JOINT lShin
    {
      OFFSET 2.19232 -43.463 -0.493181
      CHANNELS 6 Xposition Yposition Zposition Zrotation Xrotation Yrotation
      JOINT lFoot
      {
        OFFSET 0.733257 -45.8593 -2.64513
        CHANNELS 6 Xposition Yposition Zposition Zrotation Xrotation Yrotation
        End Site
        {
          OFFSET 2.6618 -4.26993 12.3931
        }
      }
    }
  }
  JOINT rThigh
  {
    OFFSET -8.367 -8.2066 0.59823
    CHANNELS 6 Xposition Yposition Zposition Zrotation Xrotation Yrotation
    JOINT rShin
    {
      OFFSET -2.19233 -43.463 -0.493108
      CHANNELS 6 Xposition Yposition Zposition Zrotation Xrotation Yrotation
      JOINT rFoot
      {
        OFFSET -0.733256 -45.8593 -2.64514
        CHANNELS 6 Xposition Yposition Zposition Zrotation Xrotation Yrotation
        End Site
        {
          OFFSET -2.6618 -4.26993 12.3931
        }
      }
    }
  }
}
MOTION
Frames:	4
Frame Time:	0.0333333
11.4678 103.987 1.37754 -0.387228 6.71551 21.2647 -1.77636e-015 -1.186 -1.50178 -1.03409 -11.3368 6.93581 -1.77636e-015 9.964 0.21338 -4.89792 -3.68638 0.589504 -1.11022e-015 13.134 -3.25729 -4.78304 -3.72679 0.998696 -3.55271e-015 20.686 -1.69049 4.19044 12.424 -23.5095 0 7.23799 -0.12368 -1.75615 8.83377 -19.0121 1.70688 20.075 5.0056 14.6983 15.4294 6.61114 13.6458 -0.047012 -4.84902 -66.8103 1.93531 23.3597 28.3255 -0.975903 2.28883 -2.83923 11.0539 -62.729 22.1583 -0.530035 10.8316 -12.76 -35.6333 0.972861 0.785995 0.111999 2.58168 3.18055e-015 6.36111e-015 -4.77083e-015 0.3601 -0.878005 4.2331 7.06225e-031 6.36111e-015 -6.36111e-015 0.9571 1.114 1.76948 3.18055e-015 6.36111e-015 -4.77083e-015 4.1246 0.487 4.1451 7.06225e-031 6.36111e-015 -6.36111e-015 3.40521 -1.45401 2.7682 0 6.36111e-015 -0 5.6954 0.209991 2.1184 7.06225e-031 6.36111e-015 -6.36111e-015 3.9766 -1.53999 2.3863 0 6.36111e-015 -0 2.09559 0.65999 -0.38939 3.18055e-015 6.36111e-015 -4.77083e-015 5.0395 -0.089997 2.49707 7.06225e-031 6.36111e-015 -6.36111e-015 3.7921 -1.552 1.4806 0 6.36111e-015 -0 4.9141 -1.269 0.35915 7.06225e-031 6.36111e-015 -6.36111e-015 3.1477 -1.685 0.84623 0 6.36111e-015 -0 -1.70688 20.075 5.0056 -45.2688 -3.54986 -5.06661 -13.6458 -0.047012 -4.84902 84.6702 -40.004 63.165 -28.3255 -0.975903 2.28883 2.31167 6.20091 25.8986 -22.1583 -0.530036 10.8316 13.286 -24.3127 -25.6097 -0.785995 0.111999 2.58168 -1.59028e-015 5.76476e-015 1.59028e-015 -0.3601 -0.878005 4.2331 -1.59028e-015 -7.95139e-016 -1.59028e-015 -0.9571 1.114 1.76948 -1.59028e-015 5.76476e-015 1.59028e-015 -4.1246 0.487 4.1451 -1.59028e-015 -7.95139e-016 -1.59028e-015 -3.40521 -1.45401 2.7682 -1.59028e-015 1.78906e-015 -0 -5.6954 0.209991 2.1184 -1.59028e-015 -7.95139e-016 -1.59028e-015 -3.9766 -1.53999 2.3863 -1.59028e-015 1.78906e-015 -0 -2.09559 0.65999 -0.38939 -1.59028e-015 5.76476e-015 1.59028e-015 -5.0395 -0.089997 2.49707 -1.59028e-015 -7.95139e-016 -1.59028e-015 -3.7921 -1.552 1.4806 -1.59028e-015 1.78906e-015 -0 -4.9141 -1.269 0.35915 -1.59028e-015 -7.95139e-016 -1.59028e-015 -3.1477 -1.685 0.84623 -1.59028e-015 1.78906e-015 -0 8.367 -8.2066 0.59823 -3.60695 -27.3021 -30.6153 2.19232 -43.463 -0.493181 -2.21761 19.1892 1.57689 0.733257 -45.8593 -2.64513 -0.677303 0.892595 -6.44787 -8.367 -8.2066 0.59823 1.11001 7.88797 -23.3894 -2.19233 -43.463 -0.493108 -2.25884 4.24225 0.0199405 -0.733256 -45.8593 -2.64514 -3.87289 -14.4101 -19.7451 
11.4687 103.969 1.34217 -0.425817 6.78291 21.2105 1.77636e-015 -1.186 -1.50178 -1.06566 -11.3271 6.93736 0 9.964 0.21338 -4.90415 -3.72449 0.59125 0 13.134 -3.25729 -4.79038 -3.76576 1.00525 0 20.686 -1.69049 4.11588 12.2123 -23.5672 -4.44089e-016 7.23799 -0.12368 -1.72247 8.87515 -18.2598 1.70688 20.075 5.0056 14.813 15.4474 6.71748 13.6458 -0.047012 -4.84902 -67.1236 2.03086 22.8554 28.3255 -0.975903 2.28883 -2.80283 11.0256 -62.1243 22.1583 -0.530035 10.8316 -13.1294 -36.0774 1.0435 0.785995 0.111999 2.58168 3.18055e-015 -9.54166e-015 -1.59028e-015 0.3601 -0.878005 4.2331 3.18055e-015 -3.18055e-015 -1.59028e-015 0.9571 1.114 1.76948 3.18055e-015 -9.54166e-015 -1.59028e-015 4.1246 0.487 4.1451 3.18055e-015 -3.18055e-015 -1.59028e-015 3.40521 -1.45401 2.7682 3.18055e-015 -9.54166e-015 -1.59028e-015 5.6954 0.209991 2.1184 3.18055e-015 -3.18055e-015 -1.59028e-015 3.9766 -1.53999 2.3863 3.18055e-015 -9.54166e-015 -1.59028e-015 2.09559 0.65999 -0.38939 3.18055e-015 -9.54166e-015 -1.59028e-015 5.0395 -0.089997 2.49707 3.18055e-015 -3.18055e-015 -1.59028e-015 3.7921 -1.552 1.4806 3.18055e-015 -9.54166e-015 -1.59028e-015 4.9141 -1.269 0.35915 3.18055e-015 -3.18055e-015 -1.59028e-015 3.1477 -1.685 0.84623 3.18055e-015 -9.54166e-015 -1.59028e-015 -1.70688 20.075 5.0056 -45.2699 -3.52472 -5.06379 -13.6458 -0.047012 -4.84902 84.4417 -39.7597 62.5969 -28.3255 -0.975903 2.28883 2.37855 6.25115 26.4271 -22.1583 -0.530036 10.8316 12.8255 -24.7548 -25.8964 -0.785995 0.111999 2.58168 -1.59028e-015 3.57812e-015 -1.59028e-015 -0.3601 -0.878005 4.2331 -1.59028e-015 1.98785e-016 -0 -0.9571 1.114 1.76948 -1.59028e-015 3.57812e-015 -1.59028e-015 -4.1246 0.487 4.1451 -1.59028e-015 1.98785e-016 -0 -3.40521 -1.45401 2.7682 7.95139e-016 1.98785e-016 3.18055e-015 -5.6954 0.209991 2.1184 -1.59028e-015 1.98785e-016 -0 -3.9766 -1.53999 2.3863 7.95139e-016 1.98785e-016 3.18055e-015 -2.09559 0.65999 -0.38939 -1.59028e-015 3.57812e-015 -1.59028e-015 -5.0395 -0.089997 2.49707 -1.59028e-015 1.98785e-016 -0 -3.7921 -1.552 1.4806 7.95139e-016 1.98785e-016 3.18055e-015 -4.9141 -1.269 0.35915 -1.59028e-015 1.98785e-016 -0 -3.1477 -1.685 0.84623 7.95139e-016 1.98785e-016 3.18055e-015 8.367 -8.2066 0.59823 -3.63658 -27.3792 -30.9038 2.19232 -43.463 -0.493181 -2.25116 19.2134 1.60791 0.733257 -45.8593 -2.64513 -0.677603 0.804372 -6.11889 -8.367 -8.2066 0.59823 1.04135 7.77506 -23.3014 -2.19233 -43.463 -0.493108 -2.14111 4.28382 -0.00338873 -0.733256 -45.8593 -2.64514 -3.90134 -14.3241 -19.7296 
11.4792 103.941 1.32174 -0.480629 6.8432 21.1449 0 -1.186 -1.50178 -1.07653 -11.3082 6.92727 0 9.964 0.21338 -4.90051 -3.75371 0.591485 4.44089e-016 13.134 -3.25729 -4.78782 -3.79556 1.0076 0 20.686 -1.69049 4.06021 12.0032 -23.6499 -8.88179e-016 7.23799 -0.12368 -1.76836 8.92051 -17.4929 1.70688 20.075 5.0056 14.8679 15.4632 6.83487 13.6458 -0.047012 -4.84902 -67.3033 1.99581 22.3305 28.3255 -0.975903 2.28883 -2.76495 10.9964 -61.4928 22.1583 -0.530035 10.8316 -13.7037 -36.4626 1.05698 0.785995 0.111999 2.58168 3.18055e-015 0 -1.59028e-015 0.3601 -0.878005 4.2331 3.18055e-015 0 3.18055e-015 0.9571 1.114 1.76948 3.18055e-015 0 -1.59028e-015 4.1246 0.487 4.1451 3.18055e-015 0 3.18055e-015 3.40521 -1.45401 2.7682 -3.18055e-015 3.18055e-015 -4.77083e-015 5.6954 0.209991 2.1184 3.18055e-015 0 3.18055e-015 3.9766 -1.53999 2.3863 -3.18055e-015 3.18055e-015 -4.77083e-015 2.09559 0.65999 -0.38939 3.18055e-015 0 -1.59028e-015 5.0395 -0.089997 2.49707 3.18055e-015 0 3.18055e-015 3.7921 -1.552 1.4806 -3.18055e-015 3.18055e-015 -4.77083e-015 4.9141 -1.269 0.35915 3.18055e-015 0 3.18055e-015 3.1477 -1.685 0.84623 -3.18055e-015 3.18055e-015 -4.77083e-015 -1.70688 20.075 5.0056 -45.3515 -3.5236 -4.98145 -13.6458 -0.047012 -4.84902 84.2721 -39.6328 62.0612 -28.3255 -0.975903 2.28883 2.45293 6.30354 26.9698 -22.1583 -0.530036 10.8316 12.3837 -25.2114 -26.2206 -0.785995 0.111999 2.58168 -7.95139e-016 -5.36719e-015 4.77083e-015 -0.3601 -0.878005 4.2331 7.95139e-016 1.59028e-015 1.59028e-015 -0.9571 1.114 1.76948 -7.95139e-016 -5.36719e-015 4.77083e-015 -4.1246 0.487 4.1451 7.95139e-016 1.59028e-015 1.59028e-015 -3.40521 -1.45401 2.7682 -1.32417e-031 4.77083e-015 1.59028e-015 -5.6954 0.209991 2.1184 7.95139e-016 1.59028e-015 1.59028e-015 -3.9766 -1.53999 2.3863 -1.32417e-031 4.77083e-015 1.59028e-015 -2.09559 0.65999 -0.38939 -7.95139e-016 -5.36719e-015 4.77083e-015 -5.0395 -0.089997 2.49707 7.95139e-016 1.59028e-015 1.59028e-015 -3.7921 -1.552 1.4806 -1.32417e-031 4.77083e-015 1.59028e-015 -4.9141 -1.269 0.35915 7.95139e-016 1.59028e-015 1.59028e-015 -3.1477 -1.685 0.84623 -1.32417e-031 4.77083e-015 1.59028e-015 8.367 -8.2066 0.59823 -3.63257 -27.4322 -31.1585 2.19232 -43.463 -0.493181 -2.28201 19.2234 1.63961 0.733257 -45.8593 -2.64513 -0.664998 0.614255 -5.79473 -8.367 -8.2066 0.59823 0.975898 7.78985 -23.2295 -2.19233 -43.463 -0.493108 -1.97193 4.25708 -0.0296613 -0.733256 -45.8593 -2.64514 -3.92155 -14.3027 -19.6885 
11.4931 103.9 1.31167 -0.555109 6.90689 21.0434 0 -1.186 -1.50178 -1.05582 -11.2854 6.90583 -1.77636e-015 9.964 0.21338 -4.88365 -3.77902 0.588258 -1.11022e-015 13.134 -3.25729 -4.77182 -3.82094 1.00407 0 20.686 -1.69049 4.03589 11.809 -23.8046 0 7.23799 -0.12368 -1.97051 8.98404 -16.7087 1.70688 20.075 5.0056 14.8056 15.4869 6.9618 13.6458 -0.047012 -4.84902 -67.2662 1.73423 21.6713 28.3255 -0.975903 2.28883 -2.71689 10.9603 -60.699 22.1583 -0.530035 10.8316 -14.7474 -36.899 1.01532 0.785995 0.111999 2.58168 -0 -6.36111e-015 -0 0.3601 -0.878005 4.2331 1.76556e-031 -3.18055e-015 3.18055e-015 0.9571 1.114 1.76948 -0 -6.36111e-015 -0 4.1246 0.487 4.1451 1.76556e-031 -3.18055e-015 3.18055e-015 3.40521 -1.45401 2.7682 -3.18055e-015 -3.18055e-015 3.18055e-015 5.6954 0.209991 2.1184 1.76556e-031 -3.18055e-015 3.18055e-015 3.9766 -1.53999 2.3863 -3.18055e-015 -3.18055e-015 3.18055e-015 2.09559 0.65999 -0.38939 -0 -6.36111e-015 -0 5.0395 -0.089997 2.49707 1.76556e-031 -3.18055e-015 3.18055e-015 3.7921 -1.552 1.4806 -3.18055e-015 -3.18055e-015 3.18055e-015 4.9141 -1.269 0.35915 1.76556e-031 -3.18055e-015 3.18055e-015 3.1477 -1.685 0.84623 -3.18055e-015 -3.18055e-015 3.18055e-015 -1.70688 20.075 5.0056 -45.6458 -3.56067 -4.73856 -13.6458 -0.047012 -4.84902 84.2466 -39.636 61.573 -28.3255 -0.975903 2.28883 2.50864 6.34543 27.4009 -22.1583 -0.530036 10.8316 11.9792 -25.6899 -26.4884 -0.785995 0.111999 2.58168 -7.95139e-016 4.17448e-015 -0 -0.3601 -0.878005 4.2331 -1.59028e-015 9.93923e-016 1.59028e-015 -0.9571 1.114 1.76948 -7.95139e-016 4.17448e-015 -0 -4.1246 0.487 4.1451 -1.59028e-015 9.93923e-016 1.59028e-015 -3.40521 -1.45401 2.7682 -1.59028e-015 -1.98785e-015 -3.18055e-015 -5.6954 0.209991 2.1184 -1.59028e-015 9.93923e-016 1.59028e-015 -3.9766 -1.53999 2.3863 -1.59028e-015 -1.98785e-015 -3.18055e-015 -2.09559 0.65999 -0.38939 -7.95139e-016 4.17448e-015 -0 -5.0395 -0.089997 2.49707 -1.59028e-015 9.93923e-016 1.59028e-015 -3.7921 -1.552 1.4806 -1.59028e-015 -1.98785e-015 -3.18055e-015 -4.9141 -1.269 0.35915 -1.59028e-015 9.93923e-016 1.59028e-015 -3.1477 -1.685 0.84623 -1.59028e-015 -1.98785e-015 -3.18055e-015 8.367 -8.2066 0.59823 -3.56295 -27.4383 -31.3449 2.19232 -43.463 -0.493181 -2.30115 19.1495 1.66565 0.733257 -45.8593 -2.64513 -0.641881 0.285104 -5.45423 -8.367 -8.2066 0.59823 0.960114 7.7648 -23.1644 -2.19233 -43.463 -0.493108 -1.85463 4.16862 -0.053035 -0.733256 -45.8593 -2.64514 -3.95098 -14.2532 -19.6114 
